<svg width="150" height="91" viewBox="0 0 150 91" fill="none" xmlns="http://www.w3.org/2000/svg">
<path d="M134.76 81.9523C135.72 82.9836 136.634 83.7353 137.503 84.2028C138.374 84.6726 139.272 84.9064 140.2 84.9064C140.97 84.9064 141.585 84.7185 142.045 84.3449C142.504 83.969 142.733 83.474 142.733 82.8598C142.733 82.0256 141.805 81.1249 139.95 80.1555C139.772 80.0615 139.632 79.9882 139.529 79.9378C137.725 78.9981 136.49 78.0975 135.823 77.2334C135.156 76.3672 134.824 75.3153 134.824 74.0754C134.824 71.8157 135.587 69.9662 137.113 68.5269C138.64 67.09 140.606 66.3704 143.012 66.3704C144.284 66.3704 145.506 66.5949 146.677 67.0418C147.85 67.491 148.957 68.1534 150 69.0266L147.374 73.5437C146.551 72.8355 145.799 72.3084 145.123 71.9646C144.445 71.6208 143.821 71.449 143.248 71.449C142.623 71.449 142.102 71.63 141.685 71.9899C141.268 72.3497 141.06 72.7897 141.06 73.3099C141.06 73.9562 141.841 74.6804 143.404 75.4825C143.957 75.7644 144.383 75.9936 144.685 76.1701C146.29 77.0547 147.406 77.96 148.029 78.8813C148.655 79.8049 148.966 80.9576 148.966 82.3442C148.966 84.7918 148.118 86.749 146.42 88.2112C144.722 89.6756 142.414 90.409 139.497 90.409C137.964 90.409 136.531 90.0836 135.2 89.4304C133.866 88.7796 132.66 87.8147 131.588 86.5313L134.76 81.9523ZM73.2387 89.8292L76.8645 66.9479H83.1002L79.4746 89.8292H73.2387ZM118.978 84.7345H126.058L125.262 89.8292H112.071L115.68 66.9479H128.872L128.042 72.2305H120.963L120.385 75.9661H126.949L126.184 80.937H119.588L118.978 84.7345ZM55.6434 89.8292L58.4254 72.2626H53.2991L54.1744 66.9479H70.3347L69.4595 72.2626H64.5677L61.7857 89.8292H55.6434ZM93.7571 89.8292H87.677L91.2865 66.9479H97.3827C99.2161 66.9479 100.582 67.0144 101.478 67.145C102.374 67.2757 103.149 67.4956 103.807 67.8096C104.962 68.3505 105.837 69.1137 106.431 70.0991C107.024 71.0823 107.322 72.2626 107.322 73.6376C107.322 75.5352 106.758 77.1212 105.626 78.3977C104.496 79.6742 102.94 80.4741 100.962 80.7972L106.525 89.8292H99.5553L95.1322 81.0928L93.7571 89.8292ZM95.7097 77.4053H97.6325C98.8403 77.4053 99.7685 77.1281 100.415 76.5757C101.061 76.0234 101.384 75.2259 101.384 74.1854C101.384 73.2068 101.082 72.4941 100.477 72.0517C99.8716 71.6094 98.9045 71.3871 97.5706 71.3871H96.6631L95.7097 77.4053ZM92.256 54.7189C93.2139 55.7502 94.1284 56.4996 94.9992 56.9694C95.8701 57.4392 96.7685 57.673 97.6944 57.673C98.4667 57.673 99.0809 57.4851 99.5393 57.1115C99.9977 56.7357 100.227 56.2407 100.227 55.6265C100.227 54.7923 99.2986 53.8916 97.4446 52.9221C97.2681 52.8282 97.1283 52.7548 97.0229 52.7021C95.2193 51.7648 93.9863 50.8641 93.3194 50.0001C92.6524 49.1338 92.3178 48.0819 92.3178 46.842C92.3178 44.58 93.081 42.7328 94.6073 41.2936C96.1337 39.8566 98.1023 39.137 100.509 39.137C101.778 39.137 103 39.3616 104.173 39.8085C105.344 40.2577 106.451 40.9177 107.494 41.7932L104.868 46.3103C104.045 45.6021 103.296 45.075 102.617 44.7313C101.941 44.3875 101.315 44.2156 100.742 44.2156C100.117 44.2156 99.5966 44.3966 99.1795 44.7564C98.7624 45.114 98.5538 45.5563 98.5538 46.0765C98.5538 46.7228 99.3353 47.447 100.898 48.2491C101.451 48.531 101.879 48.7602 102.182 48.9367C103.786 49.8213 104.9 50.7266 105.525 51.6479C106.151 52.5692 106.463 53.7243 106.463 55.1108C106.463 57.5584 105.615 59.5156 103.914 60.9778C102.216 62.4422 99.9083 63.1733 96.9908 63.1733C95.4599 63.1733 94.0275 62.8479 92.6937 62.197C91.3599 61.5462 90.1567 60.579 89.0841 59.2979L92.256 54.7189ZM65.943 50.6876C67.4017 50.9581 68.5139 51.5379 69.2798 52.4294C70.0455 53.3209 70.4285 54.4691 70.4285 55.8762C70.4285 57.0428 70.1706 58.1222 69.6548 59.11C69.1391 60.1 68.428 60.8769 67.5216 61.4407C66.8546 61.8555 66.0186 62.1535 65.0129 62.33C64.0075 62.5064 62.3327 62.5958 59.9882 62.5958H52.4395L56.0811 39.7145H61.2698C63.26 39.7145 64.6822 39.7627 65.5366 39.8566C66.391 39.9506 67.1047 40.1156 67.6778 40.3562C68.626 40.7321 69.3788 41.3509 69.9362 42.2149C70.4935 43.0812 70.7722 44.0597 70.7722 45.1552C70.7722 46.6655 70.3425 47.9123 69.4829 48.8977C68.6234 49.8809 67.4434 50.4791 65.943 50.6876ZM75.7704 62.5958L79.3967 39.7145H85.6327L82.0071 62.5958H75.7704ZM111.883 62.5958L115.508 39.7145H121.744L118.119 62.5958H111.883ZM59.0974 58.1107H59.8319C61.6866 58.1107 62.9187 57.8862 63.5283 57.4393C64.1377 56.9901 64.4425 56.204 64.4425 55.0787C64.4425 54.2445 64.1822 53.6509 63.661 53.2957C63.1401 52.9427 62.2598 52.7663 61.0197 52.7663H59.9259L59.0974 58.1107ZM60.5978 48.5769H61.1137C62.5827 48.5769 63.5959 48.3821 64.1535 47.9902C64.7109 47.6006 64.9896 46.9405 64.9896 46.0146C64.9896 45.3477 64.7629 44.8596 64.3098 44.5525C63.8565 44.2454 63.1298 44.0918 62.1294 44.0918H61.2698L60.5978 48.5769Z" fill="url(#paint0_linear)"/>
<path fill-rule="evenodd" clip-rule="evenodd" d="M19.9661 39.1987L19.9966 39.5586C20.058 40.2851 20.5789 40.8878 21.2876 41.0551C24.7537 41.8756 28.1767 42.8473 31.3577 44.2843C35.0672 45.9641 38.4425 48.068 41.9561 50.4102C42.4497 50.7402 43.0681 50.7792 43.5885 50.5431C44.7463 54.6248 45.422 59.5361 45.422 64.8187C45.422 78.9591 40.5822 90.4387 34.6212 90.4387H10.8008C4.83981 90.4387 0 78.9591 0 64.8187C0 50.6783 4.83981 39.1987 10.8008 39.1987H19.9661ZM5.8569 74.9576C5.8569 75.2624 5.97745 75.5535 6.19242 75.7689C6.40739 75.982 6.69891 76.1035 7.0028 76.1035C8.14044 76.1035 9.87464 76.1035 11.0123 76.1035C11.3162 76.1035 11.6077 76.2249 11.8224 76.4381C12.0374 76.6535 12.1582 76.9446 12.1582 77.2494C12.1582 77.5931 12.1582 77.9713 12.1582 78.3151C12.1582 78.6176 12.0374 78.9109 11.8224 79.1241C11.6077 79.3395 11.3162 79.461 11.0123 79.461C10.9112 79.461 10.809 79.461 10.7082 79.461C10.4043 79.461 10.1128 79.5802 9.8978 79.7956C9.68283 80.011 9.56228 80.3021 9.56228 80.6069C9.56228 80.9507 9.56228 81.3265 9.56228 81.6703C9.56228 81.9751 9.68283 82.2661 9.8978 82.4816C10.1128 82.697 10.4043 82.8162 10.7082 82.8162C11.5527 82.8162 12.6965 82.8162 13.5411 82.8162C13.8449 82.8162 14.1365 82.9376 14.3512 83.153C14.5662 83.3685 14.687 83.6595 14.687 83.962C14.687 84.3058 14.687 84.6839 14.687 85.0277C14.687 85.3325 14.8077 85.6236 15.0225 85.839C15.2374 86.0522 15.529 86.1736 15.8328 86.1736C17.6965 86.1736 21.363 86.1736 23.2266 86.1736C23.5305 86.1736 23.8221 86.0522 24.037 85.839C24.252 85.6236 24.3725 85.3325 24.3725 85.0277C24.3725 84.6839 24.3725 84.3058 24.3725 83.962C24.3725 83.6595 24.252 83.3685 24.037 83.153C23.8221 82.9376 23.5305 82.8162 23.2266 82.8162C22.089 82.8162 20.3548 82.8162 19.2171 82.8162C18.9133 82.8162 18.6217 82.697 18.407 82.4816C18.192 82.2661 18.0713 81.9751 18.0713 81.6703C18.0713 81.3265 18.0713 80.9507 18.0713 80.6069C18.0713 80.3021 18.192 80.011 18.407 79.7956C18.6217 79.5802 18.9133 79.461 19.2171 79.461H20.6307C20.9346 79.461 21.2261 79.3395 21.4411 79.1241C21.6561 78.9109 21.7766 78.6176 21.7766 78.3151V77.2494C21.7766 76.6168 21.2637 76.1035 20.6307 76.1035H16.6884C16.0556 76.1035 15.5425 75.5901 15.5425 74.9576C15.5425 74.6138 15.5425 74.2357 15.5425 73.8919C15.5425 73.2594 16.0556 72.746 16.6884 72.746C17.466 72.746 18.4897 72.746 19.2671 72.746C19.9001 72.746 20.413 72.2327 20.413 71.6001C20.413 71.2564 20.413 70.8805 20.413 70.5367C20.413 70.2319 20.2924 69.9409 20.0775 69.7255C19.8625 69.51 19.571 69.3908 19.2671 69.3908C18.4226 69.3908 17.2787 69.3908 16.4342 69.3908C16.1303 69.3908 15.8388 69.2694 15.6241 69.0539C15.4091 68.8385 15.2883 68.5474 15.2883 68.2449C15.2883 67.9011 15.2883 67.523 15.2883 67.1793C15.2883 66.8744 15.4091 66.5834 15.6241 66.3679C15.8388 66.1525 16.1303 66.0334 16.4342 66.0334C17.4149 66.0334 18.8197 66.0334 19.8004 66.0334C20.1043 66.0334 20.3958 65.9119 20.6106 65.6965C20.8255 65.4833 20.9463 65.19 20.9463 64.8875C20.9463 64.5437 20.9463 64.1656 20.9463 63.8218C20.9463 63.517 20.8255 63.2259 20.6106 63.0128C20.3958 62.7974 20.1043 62.6759 19.8004 62.6759C18.9559 62.6759 17.812 62.6759 16.9675 62.6759C16.6634 62.6759 16.3721 62.5544 16.1571 62.3413C15.9422 62.1258 15.8216 61.8348 15.8216 61.53C15.8216 61.1862 15.8216 60.8081 15.8216 60.4643C15.8216 60.1618 15.9422 59.8707 16.1571 59.6553C16.3721 59.4398 16.6634 59.3184 16.9675 59.3184C18.0978 59.3184 19.816 59.3184 20.9463 59.3184C21.2502 59.3184 21.5417 59.1992 21.7565 58.9838C21.9714 58.7684 22.0922 58.4773 22.0922 58.1725C22.0922 57.8287 22.0922 57.4529 22.0922 57.1091C22.0922 56.8043 21.9714 56.5133 21.7565 56.2978C21.5417 56.0824 21.2502 55.9632 20.9463 55.9632C20.1018 55.9632 18.9579 55.9632 18.1134 55.9632C17.8093 55.9632 17.518 55.8418 17.303 55.6263C17.0881 55.4109 16.9675 55.1199 16.9675 54.8173C16.9675 54.4736 16.9675 54.0954 16.9675 53.7516C16.9675 53.4468 17.0881 53.1557 17.303 52.9403C17.518 52.7272 17.8093 52.6057 18.1134 52.6057C19.3514 52.6057 21.3125 52.6057 22.5506 52.6057C22.8544 52.6057 23.146 52.4843 23.3607 52.2688C23.5757 52.0557 23.6965 51.7623 23.6965 51.4598C23.6965 51.1161 23.6965 50.7379 23.6965 50.3942C23.6965 50.0916 23.5757 49.7983 23.3607 49.5852C23.146 49.3697 22.8544 49.2483 22.5506 49.2483C21.706 49.2483 20.5622 49.2483 19.7177 49.2483C19.4135 49.2483 19.1223 49.1268 18.9073 48.9137C18.6923 48.6982 18.5718 48.4072 18.5718 48.1024C18.5718 47.7586 18.5718 47.3828 18.5718 47.0367C18.5718 46.4042 18.0586 45.8908 17.4259 45.8908C15.7985 45.8908 12.8356 45.8908 11.2085 45.8908C10.5755 45.8908 10.0626 46.4042 10.0626 47.0367C10.0626 47.3828 10.0626 47.7586 10.0626 48.1024C10.0626 48.4072 10.1834 48.6982 10.3981 48.9137C10.6131 49.1268 10.9046 49.2483 11.2085 49.2483C12.053 49.2483 13.1968 49.2483 14.0414 49.2483C14.3453 49.2483 14.6368 49.3697 14.8517 49.5852C15.0665 49.7983 15.1873 50.0916 15.1873 50.3942C15.1873 50.7379 15.1873 51.1161 15.1873 51.4598C15.1873 51.7623 15.0665 52.0557 14.8517 52.2688C14.6368 52.4843 14.3453 52.6057 14.0414 52.6057C12.1935 52.6057 8.57612 52.6057 6.72802 52.6057C6.42413 52.6057 6.13283 52.7272 5.91786 52.9403C5.70289 53.1557 5.58212 53.4468 5.58212 53.7516C5.58212 54.0954 5.58212 54.4736 5.58212 54.8173C5.58212 55.1199 5.70289 55.4109 5.91786 55.6263C6.13283 55.8418 6.42413 55.9632 6.72802 55.9632C8.24839 55.9632 10.9167 55.9632 12.4371 55.9632C12.741 55.9632 13.0325 56.0824 13.2475 56.2978C13.4622 56.5133 13.583 56.8043 13.583 57.1091C13.583 57.4529 13.583 57.8287 13.583 58.1725C13.583 58.4773 13.4622 58.7684 13.2475 58.9838C13.0325 59.1992 12.741 59.3184 12.4371 59.3184C10.7063 59.3184 7.44374 59.3184 5.71298 59.3184C5.40909 59.3184 5.11757 59.4398 4.9026 59.6553C4.68786 59.8707 4.56708 60.1618 4.56708 60.4643C4.56708 60.8081 4.56708 61.1862 4.56708 61.53C4.56708 62.1625 5.07999 62.6759 5.71298 62.6759C7.20517 62.6759 9.79902 62.6759 11.2912 62.6759C11.9242 62.6759 12.4371 63.1893 12.4371 63.8218C12.4371 64.1656 12.4371 64.5437 12.4371 64.8875C12.4371 65.19 12.3163 65.4833 12.1016 65.6965C11.8866 65.9119 11.5951 66.0334 11.2912 66.0334C9.65877 66.0334 6.6815 66.0334 5.04905 66.0334C4.74516 66.0334 4.45364 66.1525 4.23867 66.3679C4.02393 66.5834 3.90316 66.8744 3.90316 67.1793C3.90316 67.523 3.90316 67.9011 3.90316 68.2449C3.90316 68.5474 4.02393 68.8385 4.23867 69.0539C4.45364 69.2694 4.74516 69.3908 5.04905 69.3908C6.56943 69.3908 9.23775 69.3908 10.7581 69.3908C11.062 69.3908 11.3535 69.51 11.5683 69.7255C11.7833 69.9409 11.904 70.2319 11.904 70.5367C11.904 70.8805 11.904 71.2564 11.904 71.6001C11.904 71.9049 11.7833 72.196 11.5683 72.4114C11.3535 72.6269 11.062 72.746 10.7581 72.746C9.68144 72.746 8.07925 72.746 7.0028 72.746C6.69891 72.746 6.40739 72.8675 6.19242 73.0829C5.97745 73.2961 5.8569 73.5894 5.8569 73.8919C5.8569 74.2357 5.8569 74.6138 5.8569 74.9576ZM34.6212 47.6257C38.6218 47.6257 41.8697 55.3307 41.8697 64.8187C41.8697 74.309 38.6218 82.014 34.6212 82.014C30.6207 82.014 27.3727 74.309 27.3727 64.8187C27.3727 55.3307 30.6207 47.6257 34.6212 47.6257ZM34.6212 50.9832C37.8407 50.9832 40.4545 57.1824 40.4545 64.8187C40.4545 72.4549 37.8407 78.6566 34.6212 78.6566C31.4017 78.6566 28.7879 72.4549 28.7879 64.8187C28.7879 57.1824 31.4017 50.9832 34.6212 50.9832Z" fill="#141414"/>
<path fill-rule="evenodd" clip-rule="evenodd" d="M46.0325 34.7817C44.1231 32.9677 42.0172 31.5538 39.8209 30.3218C40.9801 29.1317 40.8038 27.5769 39.7532 26.5735L39.9345 25.8839L40.4613 26.1265L40.7789 26.8075C41.9165 26.2935 42.1007 25.3921 41.6317 24.227L41.2652 24.534L40.6633 24.286L40.7826 23.9547L41.3392 23.6165C40.5942 22.6399 39.6237 22.1831 38.4276 22.2464L38.8259 22.8458L38.8305 23.4724L38.2159 23.1893L37.9367 22.6147C36.9787 23.0855 36.6566 24.0276 36.9697 25.4407L37.6011 24.8773L38.105 25.1313L37.8512 25.7204C36.1039 25.8099 35.3997 26.7369 35.7389 28.5019C33.2369 27.4637 30.6886 26.9345 28.108 26.7529C27.6243 25.1892 26.5501 25.0246 26.421 22.9555C25.8198 25.1287 25.0248 25.4729 24.6158 26.7764C23.615 26.8388 22.644 27.1378 21.703 27.6737C20.971 25.8295 20.0715 24.8669 19.1661 23.9321C19.523 25.9235 19.4151 27.7669 19.5398 29.6848C19.2194 30.3225 19.2256 30.9156 19.9535 31.4124L20.7134 35.7724C20.2203 36.3697 20.2892 37.1365 20.8634 37.5124L21.2276 39.2172C24.9074 40.1847 28.5609 41.3068 32.024 42.8756C36.0307 44.6916 39.7502 46.9085 43.6392 49.3714L44.9758 48.2162C45.6425 48.4679 46.2762 48.0133 46.2175 47.0842L49.3748 44.6286C50.3052 45.0017 50.5924 44.5772 50.8001 43.5476L54.2533 39.7914C52.9202 40.1911 51.5608 39.9433 50.4396 40.4741C50.0809 39.4401 49.5394 38.5335 48.8731 37.7142C49.611 36.0384 49.276 35.1044 49.7774 33.6862C48.4316 34.6412 48.2689 33.6683 46.0317 34.7816L46.0327 34.7816L46.0325 34.7817ZM44.6498 41.6903C45.1646 41.2902 44.8659 41.0887 44.4705 41.2897C43.0727 42.3249 43.0583 43.4726 44.2183 44.6179C45.9723 45.7351 46.8331 45.0503 47.6798 44.2725C48.0165 43.9391 47.9704 43.6217 47.5116 44.0507C46.7015 44.4518 46.5882 45.0734 45.2899 44.7288C45.8961 43.9267 46.6316 42.4062 48.2462 41.1476C48.7318 40.7882 49.0835 41.0002 49.4433 41.1878C49.133 40.2378 48.5882 39.3564 47.9776 38.4933L47.539 38.8707C48.6442 39.5649 48.7518 40.6043 47.4551 41.6488C46.6388 42.7427 44.7365 43.0339 44.3403 44.211C43.6059 43.4378 43.684 42.7537 44.6499 41.6915L44.6498 41.6903L44.6498 41.6903ZM39.2348 31.7646C39.1874 32.2515 38.9492 32.6547 38.5204 32.9743C40.519 32.9945 41.6592 34.2048 40.9673 36.1506C40.4033 37.5142 38.4306 38.156 38.1318 40.184C36.8753 39.3896 36.7402 38.5562 37.3943 36.966C37.4325 36.0911 36.5826 35.9691 36.4023 37.2474C35.9628 40.1232 38.7338 42.3686 41.4302 41.4155C42.0331 41.1949 42.4781 40.7956 42.7651 40.2168C43.0361 39.4767 42.496 39.3376 41.9168 40.2204C41.441 41.3115 40.5042 41.4642 39.2537 40.9749C40.323 39.9884 40.37 38.5516 40.9286 37.3401C41.9733 35.5144 44.0071 34.9459 44.9736 36.669L45.334 35.7707C43.7034 34.1638 41.2037 32.6417 39.2352 31.7642L39.235 31.7648L39.2348 31.7646ZM35.1306 29.8159C34.8687 30.2063 34.7962 30.6841 34.9131 31.2496C33.4501 29.7107 31.8855 29.7035 31.2043 31.6542C30.7837 33.0826 31.622 35.2286 30.6045 36.9335C32.0001 37.3332 32.9417 36.5972 33.3809 35.0884C33.8857 34.4236 34.391 34.9431 33.8501 35.9989C32.4198 38.428 29.0415 37.9048 27.6637 35.1173C27.3604 34.489 27.2801 33.8526 27.4241 33.2098C27.6775 32.4621 28.155 32.7807 28.038 33.8715C27.7194 35.034 28.3064 35.8726 29.512 36.4894C29.3356 34.9418 30.176 33.8626 30.508 32.5493C30.8604 30.412 29.907 28.9391 27.9796 28.9182L28.2646 27.9858C30.8262 28.3238 33.1442 28.9364 35.131 29.8172L35.1309 29.8159L35.1306 29.8159ZM25.2284 32.9538C25.2747 32.4013 25.5013 32.3997 25.6042 32.8089C25.9237 34.5996 25.0886 35.2524 23.7282 35.3886C21.783 34.8023 21.5155 33.6275 21.3899 32.4019C21.355 31.8973 21.6062 31.717 21.6693 32.3862C22.001 33.3132 21.5587 34.0215 23.2805 35.038C22.5194 33.0708 23.3682 31.8998 22.9902 29.7235C22.865 29.0827 22.4825 28.9566 22.1088 28.8069C23.0078 28.4607 23.9139 28.2324 24.8225 28.0374L24.8964 28.5313C23.6123 28.3335 22.9648 28.9355 23.247 30.7072C23.1551 32.1348 24.3363 33.8461 23.8922 35.0018C24.7103 34.9729 25.2621 34.4777 25.2275 32.9547" fill="#FB6535"/>
<defs>
<linearGradient id="paint0_linear" x1="101.22" y1="39.137" x2="101.22" y2="90.409" gradientUnits="userSpaceOnUse">
<stop stop-color="#FB7C35"/>
<stop offset="1" stop-color="#FB6535"/>
</linearGradient>
</defs>
</svg>
