<svg width="150" height="92" viewBox="0 0 150 92" fill="none" xmlns="http://www.w3.org/2000/svg">
<path d="M134.76 82.6024C135.72 83.6337 136.634 84.3855 137.503 84.853C138.374 85.3228 139.272 85.5566 140.2 85.5566C140.97 85.5566 141.585 85.3686 142.045 84.995C142.504 84.6192 142.733 84.1242 142.733 83.51C142.733 82.6757 141.805 81.7751 139.95 80.8056C139.772 80.7117 139.632 80.6383 139.529 80.5879C137.725 79.6483 136.49 78.7476 135.823 77.8836C135.156 77.0173 134.824 75.9654 134.824 74.7256C134.824 72.4658 135.587 70.6163 137.113 69.1771C138.64 67.7401 140.606 67.0205 143.012 67.0205C144.284 67.0205 145.506 67.2451 146.677 67.692C147.85 68.1412 148.957 68.8036 150 69.6767L147.374 74.1938C146.551 73.4857 145.799 72.9585 145.123 72.6148C144.445 72.271 143.821 72.0991 143.248 72.0991C142.623 72.0991 142.102 72.2802 141.685 72.64C141.268 72.9998 141.06 73.4398 141.06 73.9601C141.06 74.6064 141.841 75.3306 143.404 76.1327C143.957 76.4146 144.383 76.6438 144.685 76.8202C146.29 77.7049 147.406 78.6101 148.029 79.5314C148.655 80.455 148.966 81.6078 148.966 82.9943C148.966 85.4419 148.118 87.3992 146.42 88.8613C144.722 90.3258 142.414 91.0592 139.497 91.0592C137.964 91.0592 136.531 90.7337 135.2 90.0806C133.866 89.4297 132.66 88.4648 131.588 87.1814L134.76 82.6024ZM73.2387 90.4793L76.8645 67.5981H83.1002L79.4746 90.4793H73.2387ZM118.978 85.3847H126.058L125.262 90.4793H112.071L115.68 67.5981H128.872L128.042 72.8806H120.963L120.385 76.6163H126.949L126.184 81.5872H119.588L118.978 85.3847ZM55.6434 90.4793L58.4254 72.9127H53.2991L54.1744 67.5981H70.3347L69.4595 72.9127H64.5677L61.7857 90.4793H55.6434ZM93.7571 90.4793H87.677L91.2865 67.5981H97.3827C99.2161 67.5981 100.582 67.6645 101.478 67.7952C102.374 67.9258 103.149 68.1458 103.807 68.4598C104.962 69.0006 105.837 69.7638 106.431 70.7493C107.024 71.7324 107.322 72.9127 107.322 74.2878C107.322 76.1854 106.758 77.7713 105.626 79.0478C104.496 80.3244 102.94 81.1242 100.962 81.4473L106.525 90.4793H99.5553L95.1322 81.743L93.7571 90.4793ZM95.7097 78.0555H97.6325C98.8403 78.0555 99.7685 77.7782 100.415 77.2259C101.061 76.6736 101.384 75.876 101.384 74.8356C101.384 73.857 101.082 73.1442 100.477 72.7019C99.8716 72.2596 98.9045 72.0373 97.5706 72.0373H96.6631L95.7097 78.0555ZM92.256 55.369C93.2139 56.4003 94.1284 57.1498 94.9992 57.6196C95.8701 58.0894 96.7685 58.3232 97.6944 58.3232C98.4667 58.3232 99.0809 58.1353 99.5393 57.7617C99.9977 57.3858 100.227 56.8908 100.227 56.2766C100.227 55.4424 99.2986 54.5417 97.4446 53.5723C97.2681 53.4783 97.1283 53.405 97.0229 53.3523C95.2193 52.4149 93.9863 51.5143 93.3194 50.6502C92.6524 49.7839 92.3178 48.732 92.3178 47.4921C92.3178 45.2301 93.081 43.383 94.6073 41.9437C96.1337 40.5068 98.1023 39.7871 100.509 39.7871C101.778 39.7871 103 40.0117 104.173 40.4586C105.344 40.9078 106.451 41.5679 107.494 42.4433L104.868 46.9604C104.045 46.2523 103.296 45.7252 102.617 45.3814C101.941 45.0376 101.315 44.8658 100.742 44.8658C100.117 44.8658 99.5966 45.0468 99.1795 45.4066C98.7624 45.7641 98.5538 46.2064 98.5538 46.7267C98.5538 47.373 99.3353 48.0972 100.898 48.8993C101.451 49.1812 101.879 49.4104 102.182 49.5868C103.786 50.4715 104.9 51.3767 105.525 52.298C106.151 53.2193 106.463 54.3744 106.463 55.761C106.463 58.2086 105.615 60.1658 103.914 61.6279C102.216 63.0924 99.9083 63.8235 96.9908 63.8235C95.4599 63.8235 94.0275 63.498 92.6937 62.8472C91.3599 62.1963 90.1567 61.2292 89.0841 59.9481L92.256 55.369ZM65.943 51.3378C67.4017 51.6082 68.5139 52.188 69.2798 53.0795C70.0455 53.971 70.4285 55.1192 70.4285 56.5264C70.4285 57.6929 70.1706 58.7724 69.6548 59.7601C69.1391 60.7502 68.428 61.5271 67.5216 62.0909C66.8546 62.5057 66.0186 62.8036 65.0129 62.9801C64.0075 63.1566 62.3327 63.2459 59.9882 63.2459H52.4395L56.0811 40.3646H61.2698C63.26 40.3646 64.6822 40.4128 65.5366 40.5068C66.391 40.6007 67.1047 40.7657 67.6778 41.0064C68.626 41.3822 69.3788 42.001 69.9362 42.865C70.4935 43.7313 70.7722 44.7099 70.7722 45.8054C70.7722 47.3157 70.3425 48.5624 69.4829 49.5479C68.6234 50.5311 67.4434 51.1292 65.943 51.3378ZM75.7704 63.2459L79.3967 40.3646H85.6327L82.0071 63.2459H75.7704ZM111.883 63.2459L115.508 40.3646H121.744L118.119 63.2459H111.883ZM59.0974 58.7609H59.8319C61.6866 58.7609 62.9187 58.5363 63.5283 58.0894C64.1377 57.6402 64.4425 56.8541 64.4425 55.7288C64.4425 54.8946 64.1822 54.301 63.661 53.9458C63.1401 53.5929 62.2598 53.4165 61.0197 53.4165H59.9259L59.0974 58.7609ZM60.5978 49.2271H61.1137C62.5827 49.2271 63.5959 49.0322 64.1535 48.6403C64.7109 48.2507 64.9896 47.5907 64.9896 46.6648C64.9896 45.9979 64.7629 45.5097 64.3098 45.2026C63.8565 44.8955 63.1298 44.742 62.1294 44.742H61.2698L60.5978 49.2271Z" fill="url(#paint0_linear)"/>
<path fill-rule="evenodd" clip-rule="evenodd" d="M19.9661 39.8489L19.9966 40.2088C20.058 40.9353 20.5789 41.538 21.2876 41.7053C24.7537 42.5258 28.1767 43.4975 31.3577 44.9345C35.0672 46.6144 38.4425 48.7182 41.9561 51.0604C42.4497 51.3904 43.0681 51.4294 43.5885 51.1933C44.7463 55.275 45.422 60.1863 45.422 65.4689C45.422 79.6093 40.5822 91.0889 34.6212 91.0889H10.8008C4.83981 91.0889 0 79.6093 0 65.4689C0 51.3285 4.83981 39.8489 10.8008 39.8489H19.9661ZM5.8569 75.6078C5.8569 75.9126 5.97745 76.2037 6.19242 76.4191C6.40739 76.6322 6.69891 76.7537 7.0028 76.7537C8.14044 76.7537 9.87464 76.7537 11.0123 76.7537C11.3162 76.7537 11.6077 76.8751 11.8224 77.0883C12.0374 77.3037 12.1582 77.5948 12.1582 77.8996C12.1582 78.2434 12.1582 78.6215 12.1582 78.9653C12.1582 79.2678 12.0374 79.5611 11.8224 79.7743C11.6077 79.9897 11.3162 80.1112 11.0123 80.1112C10.9112 80.1112 10.809 80.1112 10.7082 80.1112C10.4043 80.1112 10.1128 80.2304 9.8978 80.4458C9.68283 80.6612 9.56228 80.9523 9.56228 81.2571C9.56228 81.6009 9.56228 81.9767 9.56228 82.3205C9.56228 82.6253 9.68283 82.9163 9.8978 83.1318C10.1128 83.3472 10.4043 83.4664 10.7082 83.4664C11.5527 83.4664 12.6965 83.4664 13.5411 83.4664C13.8449 83.4664 14.1365 83.5878 14.3512 83.8032C14.5662 84.0187 14.687 84.3097 14.687 84.6123C14.687 84.956 14.687 85.3341 14.687 85.6779C14.687 85.9827 14.8077 86.2738 15.0225 86.4892C15.2374 86.7024 15.529 86.8238 15.8328 86.8238C17.6965 86.8238 21.363 86.8238 23.2266 86.8238C23.5305 86.8238 23.8221 86.7024 24.037 86.4892C24.252 86.2738 24.3725 85.9827 24.3725 85.6779C24.3725 85.3341 24.3725 84.956 24.3725 84.6123C24.3725 84.3097 24.252 84.0187 24.037 83.8032C23.8221 83.5878 23.5305 83.4664 23.2266 83.4664C22.089 83.4664 20.3548 83.4664 19.2171 83.4664C18.9133 83.4664 18.6217 83.3472 18.407 83.1318C18.192 82.9163 18.0713 82.6253 18.0713 82.3205C18.0713 81.9767 18.0713 81.6009 18.0713 81.2571C18.0713 80.9523 18.192 80.6612 18.407 80.4458C18.6217 80.2304 18.9133 80.1112 19.2171 80.1112H20.6307C20.9346 80.1112 21.2261 79.9897 21.4411 79.7743C21.6561 79.5611 21.7766 79.2678 21.7766 78.9653V77.8996C21.7766 77.2671 21.2637 76.7537 20.6307 76.7537H16.6884C16.0556 76.7537 15.5425 76.2403 15.5425 75.6078C15.5425 75.264 15.5425 74.8859 15.5425 74.5421C15.5425 73.9096 16.0556 73.3962 16.6884 73.3962C17.466 73.3962 18.4897 73.3962 19.2671 73.3962C19.9001 73.3962 20.413 72.8829 20.413 72.2503C20.413 71.9066 20.413 71.5307 20.413 71.1869C20.413 70.8821 20.2924 70.5911 20.0775 70.3757C19.8625 70.1602 19.571 70.041 19.2671 70.041C18.4226 70.041 17.2787 70.041 16.4342 70.041C16.1303 70.041 15.8388 69.9196 15.6241 69.7041C15.4091 69.4887 15.2883 69.1976 15.2883 68.8951C15.2883 68.5514 15.2883 68.1732 15.2883 67.8295C15.2883 67.5247 15.4091 67.2336 15.6241 67.0182C15.8388 66.8027 16.1303 66.6836 16.4342 66.6836C17.4149 66.6836 18.8197 66.6836 19.8004 66.6836C20.1043 66.6836 20.3958 66.5621 20.6106 66.3467C20.8255 66.1335 20.9463 65.8402 20.9463 65.5377C20.9463 65.1939 20.9463 64.8158 20.9463 64.472C20.9463 64.1672 20.8255 63.8761 20.6106 63.663C20.3958 63.4476 20.1043 63.3261 19.8004 63.3261C18.9559 63.3261 17.812 63.3261 16.9675 63.3261C16.6634 63.3261 16.3721 63.2046 16.1571 62.9915C15.9422 62.776 15.8216 62.485 15.8216 62.1802C15.8216 61.8364 15.8216 61.4583 15.8216 61.1145C15.8216 60.812 15.9422 60.5209 16.1571 60.3055C16.3721 60.0901 16.6634 59.9686 16.9675 59.9686C18.0978 59.9686 19.816 59.9686 20.9463 59.9686C21.2502 59.9686 21.5417 59.8494 21.7565 59.634C21.9714 59.4186 22.0922 59.1275 22.0922 58.8227C22.0922 58.4789 22.0922 58.1031 22.0922 57.7593C22.0922 57.4545 21.9714 57.1635 21.7565 56.948C21.5417 56.7326 21.2502 56.6134 20.9463 56.6134C20.1018 56.6134 18.9579 56.6134 18.1134 56.6134C17.8093 56.6134 17.518 56.492 17.303 56.2766C17.0881 56.0611 16.9675 55.7701 16.9675 55.4675C16.9675 55.1238 16.9675 54.7456 16.9675 54.4018C16.9675 54.097 17.0881 53.8059 17.303 53.5905C17.518 53.3774 17.8093 53.2559 18.1134 53.2559C19.3514 53.2559 21.3125 53.2559 22.5506 53.2559C22.8545 53.2559 23.146 53.1345 23.3607 52.919C23.5757 52.7059 23.6965 52.4125 23.6965 52.11C23.6965 51.7663 23.6965 51.3881 23.6965 51.0444C23.6965 50.7419 23.5757 50.4485 23.3607 50.2354C23.146 50.0199 22.8545 49.8985 22.5506 49.8985C21.706 49.8985 20.5622 49.8985 19.7177 49.8985C19.4135 49.8985 19.1223 49.777 18.9073 49.5639C18.6923 49.3485 18.5718 49.0574 18.5718 48.7526C18.5718 48.4088 18.5718 48.033 18.5718 47.6869C18.5718 47.0544 18.0586 46.541 17.4259 46.541C15.7985 46.541 12.8356 46.541 11.2085 46.541C10.5755 46.541 10.0626 47.0544 10.0626 47.6869C10.0626 48.033 10.0626 48.4088 10.0626 48.7526C10.0626 49.0574 10.1834 49.3485 10.3981 49.5639C10.6131 49.777 10.9046 49.8985 11.2085 49.8985C12.053 49.8985 13.1968 49.8985 14.0414 49.8985C14.3453 49.8985 14.6368 50.0199 14.8517 50.2354C15.0665 50.4485 15.1873 50.7419 15.1873 51.0444C15.1873 51.3881 15.1873 51.7663 15.1873 52.11C15.1873 52.4125 15.0665 52.7059 14.8517 52.919C14.6368 53.1345 14.3453 53.2559 14.0414 53.2559C12.1935 53.2559 8.57612 53.2559 6.72802 53.2559C6.42413 53.2559 6.13283 53.3774 5.91786 53.5905C5.70289 53.8059 5.58212 54.097 5.58212 54.4018C5.58212 54.7456 5.58212 55.1238 5.58212 55.4675C5.58212 55.7701 5.70289 56.0611 5.91786 56.2766C6.13283 56.492 6.42413 56.6134 6.72802 56.6134C8.24839 56.6134 10.9167 56.6134 12.4371 56.6134C12.741 56.6134 13.0325 56.7326 13.2475 56.948C13.4622 57.1635 13.583 57.4545 13.583 57.7593C13.583 58.1031 13.583 58.4789 13.583 58.8227C13.583 59.1275 13.4622 59.4186 13.2475 59.634C13.0325 59.8494 12.741 59.9686 12.4371 59.9686C10.7063 59.9686 7.44374 59.9686 5.71298 59.9686C5.40909 59.9686 5.11757 60.0901 4.9026 60.3055C4.68786 60.5209 4.56708 60.812 4.56708 61.1145C4.56708 61.4583 4.56708 61.8364 4.56708 62.1802C4.56708 62.8127 5.07999 63.3261 5.71298 63.3261C7.20517 63.3261 9.79902 63.3261 11.2912 63.3261C11.9242 63.3261 12.4371 63.8395 12.4371 64.472C12.4371 64.8158 12.4371 65.1939 12.4371 65.5377C12.4371 65.8402 12.3163 66.1335 12.1016 66.3467C11.8866 66.5621 11.5951 66.6836 11.2912 66.6836C9.65877 66.6836 6.6815 66.6836 5.04905 66.6836C4.74516 66.6836 4.45364 66.8027 4.23867 67.0182C4.02393 67.2336 3.90316 67.5247 3.90316 67.8295C3.90316 68.1732 3.90316 68.5514 3.90316 68.8951C3.90316 69.1976 4.02393 69.4887 4.23867 69.7041C4.45364 69.9196 4.74516 70.041 5.04905 70.041C6.56943 70.041 9.23775 70.041 10.7581 70.041C11.062 70.041 11.3535 70.1602 11.5683 70.3757C11.7833 70.5911 11.904 70.8821 11.904 71.1869C11.904 71.5307 11.904 71.9066 11.904 72.2503C11.904 72.5551 11.7833 72.8462 11.5683 73.0616C11.3535 73.2771 11.062 73.3962 10.7581 73.3962C9.68144 73.3962 8.07925 73.3962 7.0028 73.3962C6.69891 73.3962 6.40739 73.5177 6.19242 73.7331C5.97745 73.9463 5.8569 74.2396 5.8569 74.5421C5.8569 74.8859 5.8569 75.264 5.8569 75.6078ZM34.6212 48.2759C38.6218 48.2759 41.8697 55.9809 41.8697 65.4689C41.8697 74.9592 38.6218 82.6642 34.6212 82.6642C30.6207 82.6642 27.3727 74.9592 27.3727 65.4689C27.3727 55.9809 30.6207 48.2759 34.6212 48.2759ZM34.6212 51.6334C37.8407 51.6334 40.4545 57.8326 40.4545 65.4689C40.4545 73.1052 37.8407 79.3068 34.6212 79.3068C31.4017 79.3068 28.7879 73.1052 28.7879 65.4689C28.7879 57.8326 31.4017 51.6334 34.6212 51.6334Z" fill="#141414"/>
<path fill-rule="evenodd" clip-rule="evenodd" d="M46.0325 35.4319C44.1231 33.6179 42.0172 32.204 39.8209 30.972C40.9801 29.7819 40.8038 28.2271 39.7532 27.2237L39.9345 26.5341L40.4613 26.7767L40.7789 27.4577C41.9165 26.9437 42.1007 26.0423 41.6317 24.8772L41.2652 25.1842L40.6633 24.9362L40.7826 24.605L41.3392 24.2667C40.5942 23.2901 39.6237 22.8333 38.4276 22.8966L38.8259 23.4961L38.8305 24.1226L38.2159 23.8395L37.9367 23.2649C36.9787 23.7357 36.6566 24.6778 36.9697 26.0909L37.6011 25.5275L38.105 25.7815L37.8512 26.3707C36.1039 26.4601 35.3997 27.3871 35.7389 29.1521C33.2369 28.1139 30.6886 27.5847 28.108 27.4031C27.6243 25.8395 26.5501 25.6748 26.421 23.6057C25.8198 25.7789 25.0248 26.1231 24.6158 27.4266C23.615 27.4891 22.644 27.788 21.703 28.3239C20.971 26.4797 20.0715 25.5171 19.1661 24.5823C19.523 26.5737 19.4151 28.4171 19.5398 30.335C19.2194 30.9727 19.2256 31.5658 19.9535 32.0626L20.7134 36.4226C20.2203 37.0199 20.2892 37.7867 20.8634 38.1626L21.2276 39.8674C24.9074 40.8349 28.5609 41.957 32.024 43.5258C36.0307 45.3418 39.7502 47.5587 43.6392 50.0216L44.9758 48.8664C45.6425 49.1181 46.2762 48.6636 46.2175 47.7344L49.3748 45.2788C50.3052 45.6519 50.5924 45.2274 50.8001 44.1978L54.2534 40.4416C52.9202 40.8413 51.5608 40.5935 50.4396 41.1243C50.0809 40.0904 49.5394 39.1837 48.8731 38.3644C49.611 36.6887 49.276 35.7546 49.7774 34.3364C48.4316 35.2914 48.2689 34.3185 46.0317 35.4318L46.0327 35.4318L46.0325 35.4319ZM44.6498 42.3405C45.1646 41.9404 44.8659 41.7389 44.4705 41.9399C43.0727 42.9751 43.0583 44.1228 44.2183 45.2681C45.9723 46.3853 46.8331 45.7005 47.6798 44.9228C48.0165 44.5893 47.9704 44.2719 47.5116 44.7009C46.7015 45.102 46.5882 45.7236 45.2899 45.379C45.8961 44.5769 46.6316 43.0564 48.2462 41.7979C48.7318 41.4384 49.0835 41.6504 49.4433 41.838C49.133 40.888 48.5882 40.0066 47.9776 39.1435L47.539 39.5209C48.6443 40.2151 48.7518 41.2545 47.4551 42.299C46.6388 43.3929 44.7365 43.6841 44.3403 44.8612C43.6059 44.088 43.684 43.4039 44.6499 42.3417L44.6498 42.3405L44.6498 42.3405ZM39.2348 32.4148C39.1874 32.9017 38.9492 33.3049 38.5204 33.6245C40.519 33.6447 41.6592 34.855 40.9673 36.8008C40.4033 38.1644 38.4306 38.8062 38.1319 40.8342C36.8753 40.0398 36.7402 39.2064 37.3943 37.6162C37.4325 36.7413 36.5826 36.6193 36.4023 37.8976C35.9628 40.7734 38.7338 43.0188 41.4302 42.0657C42.0331 41.8451 42.4781 41.4458 42.7651 40.867C43.0361 40.1269 42.496 39.9878 41.9168 40.8706C41.441 41.9617 40.5042 42.1144 39.2537 41.6251C40.323 40.6386 40.37 39.2018 40.9286 37.9904C41.9733 36.1646 44.0071 35.5961 44.9736 37.3192L45.334 36.421C43.7034 34.814 41.2037 33.2919 39.2352 32.4145L39.235 32.415L39.2348 32.4148ZM35.1306 30.4661C34.8687 30.8565 34.7962 31.3343 34.9131 31.8998C33.4501 30.361 31.8855 30.3537 31.2043 32.3044C30.7837 33.7328 31.622 35.8788 30.6045 37.5837C32.0001 37.9834 32.9417 37.2474 33.3809 35.7386C33.8857 35.0738 34.391 35.5933 33.8501 36.6492C32.4198 39.0782 29.0415 38.555 27.6637 35.7675C27.3604 35.1392 27.2801 34.5028 27.4241 33.86C27.6775 33.1123 28.1551 33.4309 28.038 34.5217C27.7194 35.6842 28.3064 36.5228 29.512 37.1396C29.3356 35.592 30.176 34.5129 30.508 33.1995C30.8604 31.0622 29.907 29.5893 27.9796 29.5684L28.2646 28.636C30.8262 28.974 33.1442 29.5866 35.131 30.4674L35.1309 30.4662L35.1306 30.4661ZM25.2284 33.604C25.2747 33.0515 25.5013 33.05 25.6042 33.4592C25.9237 35.2499 25.0886 35.9026 23.7282 36.0388C21.783 35.4525 21.5155 34.2777 21.3899 33.0521C21.355 32.5475 21.6062 32.3672 21.6693 33.0364C22.001 33.9634 21.5587 34.6717 23.2805 35.6882C22.5194 33.721 23.3682 32.55 22.9902 30.3737C22.865 29.7329 22.4825 29.6068 22.1088 29.4571C23.0078 29.1109 23.9139 28.8826 24.8225 28.6876L24.8964 29.1815C23.6123 28.9837 22.9648 29.5858 23.247 31.3574C23.1551 32.785 24.3363 34.4963 23.8922 35.652C24.7103 35.6231 25.2621 35.1279 25.2275 33.6049" fill="#FB6535"/>
<defs>
<linearGradient id="paint0_linear" x1="65" y1="45.5" x2="101.22" y2="91.0592" gradientUnits="userSpaceOnUse">
<stop stop-color="#FB7C35"/>
<stop offset="1" stop-color="#FB6535"/>
</linearGradient>
</defs>
</svg>
