<svg width="165" height="49" viewBox="0 0 165 49" fill="none" xmlns="http://www.w3.org/2000/svg">
<path fill-rule="evenodd" clip-rule="evenodd" d="M39.3287 0V12.1422L23.5386 24.2844L7.73766 12.1422V0H39.3287Z" fill="#777777"/>
<path d="M44.3595 0V16.0063L23.1871 32.0126L2 16.0063V0" stroke="#777777" stroke-width="3" stroke-miterlimit="1.5"/>
<path fill-rule="evenodd" clip-rule="evenodd" d="M60.1698 48.6013V36.4591L44.3797 24.3169L28.5788 36.4591V48.6013H60.1698Z" fill="#777777"/>
<path d="M65.5382 48.6013V32.3201L44.3657 16.0389L23.1787 32.3201V48.6013" stroke="#777777" stroke-width="3" stroke-miterlimit="1.5"/>
<path fill-rule="evenodd" clip-rule="evenodd" d="M81.686 0V12.1422L65.8959 24.2844L50.095 12.1422V0H81.686Z" fill="#777777"/>
<path d="M86.7169 0V16.0063L65.5444 32.0126L44.3573 16.0063V0" stroke="#777777" stroke-width="3" stroke-miterlimit="1.5"/>
<path fill-rule="evenodd" clip-rule="evenodd" d="M102.527 48.6013V36.4591L86.7371 24.3169L70.9361 36.4591V48.6013H102.527Z" fill="#777777"/>
<path d="M107.896 48.6013V32.3201L86.723 16.0389L65.536 32.3201V48.6013" stroke="#777777" stroke-width="3" stroke-miterlimit="1.5"/>
<path fill-rule="evenodd" clip-rule="evenodd" d="M123.959 0V12.1422L108.169 24.2844L92.3679 12.1422V0H123.959Z" fill="#777777"/>
<path d="M128.99 0V16.0063L107.817 32.0126L86.6302 16.0063V0" stroke="#777777" stroke-width="3" stroke-miterlimit="1.5"/>
<path fill-rule="evenodd" clip-rule="evenodd" d="M144.8 48.6013V36.4591L129.01 24.3169L113.209 36.4591V48.6013H144.8Z" fill="#777777"/>
<path d="M150.168 48.6013V32.3201L128.996 16.0389L107.809 32.3201V48.6013" stroke="#777777" stroke-width="3" stroke-miterlimit="1.5"/>
<path fill-rule="evenodd" clip-rule="evenodd" d="M166.316 0V12.1422L150.526 24.2844L134.725 12.1422V0H166.316Z" fill="#777777"/>
<path d="M171.347 0V16.0063L150.175 32.0126L128.988 16.0063V0" stroke="#777777" stroke-width="3" stroke-miterlimit="1.5"/>
<path fill-rule="evenodd" clip-rule="evenodd" d="M187.157 48.6013V36.4591L171.367 24.3169L155.566 36.4591V48.6013H187.157Z" fill="#777777"/>
<path d="M192.526 48.6013V32.3201L171.353 16.0389L150.166 32.3201V48.6013" stroke="#777777" stroke-width="3" stroke-miterlimit="1.5"/>
</svg>
