<svg width="163" height="49" viewBox="0 0 163 49" fill="none" xmlns="http://www.w3.org/2000/svg">
<path fill-rule="evenodd" clip-rule="evenodd" d="M24.4527 48.6268H16.5019L17.2016 37.0028H23.7531L24.4527 48.6268ZM10.7813 38.5532L6.4282 48.6268H0L4.34907 38.5532H10.7813ZM30.1733 38.5532L34.5224 48.6268H40.9547L36.6055 38.5532H30.1733ZM51.7042 31.9382H45.3117V39.5789H51.7042V31.9382ZM11.8825 35.9971H5.45425L10.0696 25.3072H16.5019L11.8825 35.9971ZM29.0681 35.9971H35.5004L30.8809 25.3072H24.4527L29.0681 35.9971ZM51.7042 30.1135H45.3117V17.9567H51.7042V30.1135ZM11.8825 12.6258H5.45425L10.0696 23.3195H16.5019L11.8825 12.6258ZM29.0681 12.6258H35.5004L30.8809 23.3195H24.4527L29.0681 12.6258ZM51.7042 16.1321V8.49145H45.3117V16.1321H51.7042ZM24.4527 0H16.5019L17.2016 11.624H23.7531L24.4527 0ZM10.7813 10.0697L6.4282 0H0L4.34907 10.0697H10.7813ZM30.1733 10.0697L34.5224 0H40.9547L36.6055 10.0697H30.1733Z" fill="#141414" fill-opacity="0.3"/>
<path fill-rule="evenodd" clip-rule="evenodd" d="M80.1209 48.6268H72.17L72.8697 37.0028H79.4212L80.1209 48.6268ZM66.4494 38.5532L62.0963 48.6268H55.6681L60.0172 38.5532H66.4494ZM85.8414 38.5532L90.1905 48.6268H96.6228L92.2736 38.5532H85.8414ZM107.372 31.9382H100.98V39.5789H107.372V31.9382ZM67.5506 35.9971H61.1224L65.7378 25.3072H72.17L67.5506 35.9971ZM84.7363 35.9971H91.1685L86.5491 25.3072H80.1209L84.7363 35.9971ZM107.372 30.1135H100.98V17.9567H107.372V30.1135ZM67.5506 12.6258H61.1224L65.7378 23.3195H72.17L67.5506 12.6258ZM84.7363 12.6258H91.1685L86.5491 23.3195H80.1209L84.7363 12.6258ZM107.372 16.1321V8.49145H100.98V16.1321H107.372ZM80.1209 0H72.17L72.8697 11.624H79.4212L80.1209 0ZM66.4494 10.0697L62.0963 0H55.6681L60.0172 10.0697H66.4494ZM85.8414 10.0697L90.1905 0H96.6228L92.2736 10.0697H85.8414Z" fill="#141414" fill-opacity="0.3"/>
<path fill-rule="evenodd" clip-rule="evenodd" d="M135.749 48.6268H127.798L128.497 37.0028H135.049L135.749 48.6268ZM122.077 38.5532L117.724 48.6268H111.296L115.645 38.5532H122.077ZM141.469 38.5532L145.818 48.6268H152.25L147.901 38.5532H141.469ZM163 31.9382H156.608V39.5789H163V31.9382ZM123.178 35.9971H116.75L121.365 25.3072H127.798L123.178 35.9971ZM140.364 35.9971H146.796L142.177 25.3072H135.749L140.364 35.9971ZM163 30.1135H156.608V17.9567H163V30.1135ZM123.178 12.6258H116.75L121.365 23.3195H127.798L123.178 12.6258ZM140.364 12.6258H146.796L142.177 23.3195H135.749L140.364 12.6258ZM163 16.1321V8.49145H156.608V16.1321H163ZM135.749 0H127.798L128.497 11.624H135.049L135.749 0ZM122.077 10.0697L117.724 0H111.296L115.645 10.0697H122.077ZM141.469 10.0697L145.818 0H152.25L147.901 10.0697H141.469Z" fill="#141414" fill-opacity="0.3"/>
</svg>
